<?xml version="1.0" standalone="no"?>
<!DOCTYPE svg PUBLIC "-//W3C//DTD SVG 20010904//EN"
 "http://www.w3.org/TR/2001/REC-SVG-20010904/DTD/svg10.dtd">
<svg version="1.0" xmlns="http://www.w3.org/2000/svg"
 width="603.000000pt" height="602.000000pt" viewBox="0 0 603.000000 602.000000"
 preserveAspectRatio="xMidYMid meet">

<g transform="translate(0.000000,602.000000) scale(0.100000,-0.100000)"
fill="#fff" stroke="none">
<path d="M2865 6013 c-326 -27 -517 -62 -760 -140 -291 -94 -602 -252 -837
-425 -128 -94 -335 -277 -443 -390 -491 -516 -766 -1148 -816 -1878 -36 -525
80 -1055 342 -1558 158 -304 350 -555 609 -794 263 -244 602 -464 910 -591
523 -215 1111 -278 1675 -178 620 110 1148 386 1600 836 355 354 615 790 749
1257 134 466 159 881 81 1344 -110 651 -398 1199 -870 1652 -389 373 -802 616
-1291 756 -285 82 -699 130 -949 109z m542 -222 c502 -76 952 -274 1347 -591
386 -310 666 -673 845 -1092 49 -114 114 -299 107 -305 -2 -2 -23 9 -47 26
-23 17 -54 31 -69 31 -31 0 -39 -5 -320 -218 l-202 -152 -106 74 c-59 41 -240
166 -402 278 l-295 203 -55 0 c-59 -1 -13 22 -855 -435 -99 -54 -216 -117
-260 -140 -44 -24 -102 -55 -130 -70 -27 -15 -123 -66 -212 -114 l-163 -87
-47 32 c-27 18 -88 63 -138 99 -49 37 -155 114 -235 171 -311 226 -314 227
-373 207 -18 -6 -92 -47 -165 -91 -131 -80 -242 -176 -242 -211 0 -27 38 -58
63 -51 12 4 100 44 195 91 l173 84 33 -23 c18 -12 142 -103 275 -202 134 -99
316 -234 405 -299 245 -182 880 -657 1071 -802 94 -71 288 -219 433 -329 145
-110 277 -209 293 -220 62 -43 34 -43 -121 2 -219 62 -498 246 -767 505 -75
72 -109 98 -127 98 -36 0 -33 -24 11 -90 83 -124 235 -293 368 -409 l60 -52
-40 6 c-116 19 -273 129 -462 322 -75 78 -137 133 -145 131 -44 -15 0 -74 225
-302 70 -71 126 -131 123 -133 -2 -2 -28 -1 -57 3 -53 7 -57 10 -196 147 -98
96 -147 138 -157 134 -25 -10 -19 -31 27 -93 60 -82 119 -175 114 -181 -12
-11 -595 176 -815 262 -94 37 -136 59 -173 93 -65 58 -186 219 -243 324 -49
90 -101 218 -88 218 4 0 45 -29 90 -65 125 -99 128 -90 29 82 -72 124 -112
212 -121 266 -9 48 1 47 69 -3 60 -44 65 -46 65 -26 0 24 -142 296 -160 306
-29 15 -44 -8 -182 -270 -25 -47 -6 -51 60 -11 27 17 52 31 56 31 9 0 0 -47
-20 -107 -28 -82 -160 -293 -183 -293 -5 0 -11 79 -13 175 -3 152 -5 177 -21
192 -18 17 -19 17 -38 -6 -18 -22 -19 -41 -19 -292 0 -291 0 -291 -53 -249
-52 41 -182 234 -202 298 -6 21 -4 23 15 17 13 -4 50 -25 83 -46 33 -22 64
-39 70 -39 19 0 -5 52 -64 142 -33 51 -76 120 -95 154 -34 61 -78 174 -67 174
3 0 44 -25 92 -55 48 -30 90 -55 94 -55 19 0 1 35 -65 121 -82 108 -168 279
-140 279 5 0 40 -24 77 -52 93 -73 93 -73 100 -67 3 3 -21 71 -53 150 -58 141
-100 261 -122 347 -17 64 -49 214 -45 210 1 -1 51 -68 111 -148 124 -166 136
-166 79 -1 -43 124 -167 423 -190 458 -22 33 -53 26 -76 -17 -11 -19 -47 -98
-80 -175 -34 -77 -71 -160 -82 -185 -24 -53 -87 -243 -83 -248 2 -1 19 17 37
41 56 73 213 255 221 256 27 3 -61 -296 -161 -541 -28 -71 -51 -133 -51 -140
0 -6 10 -2 23 9 22 21 132 93 141 93 8 0 -19 -70 -49 -131 -43 -84 -176 -252
-189 -238 -12 13 -91 149 -120 207 -55 108 -107 292 -84 292 5 0 41 -20 79
-45 38 -25 72 -45 74 -45 15 0 0 44 -28 86 -19 27 -57 90 -86 139 -84 143 -94
149 -131 83 -13 -24 -57 -98 -97 -166 -41 -67 -73 -129 -71 -137 2 -10 22 -1
68 30 98 67 101 64 71 -50 -21 -84 -62 -178 -112 -262 -51 -83 -81 -144 -76
-150 7 -6 50 18 132 77 83 58 89 51 46 -50 -38 -91 -107 -201 -169 -270 l-50
-55 -2 120 c-2 66 -4 143 -6 170 -4 80 15 372 33 475 101 616 360 1120 798
1555 369 367 770 602 1262 739 111 31 342 72 478 85 155 15 488 5 642 -18z
m848 -1948 c76 -70 485 -565 485 -586 -1 -14 8 -7 -310 -233 -658 -466 -730
-519 -736 -542 -8 -29 17 -57 63 -73 60 -20 103 -6 201 62 333 233 901 637
1031 732 34 26 68 44 75 40 6 -3 61 -41 121 -83 61 -42 152 -105 203 -139 l93
-62 -18 -28 c-38 -58 -130 -186 -171 -238 -60 -76 -42 -87 38 -23 58 46 80 59
80 45 0 -15 -102 -220 -144 -289 -26 -43 -45 -80 -42 -83 10 -10 54 7 105 41
28 19 51 30 51 24 0 -16 -49 -109 -76 -145 -13 -17 -44 -44 -68 -60 -48 -30
-63 -50 -47 -66 13 -13 75 -11 102 4 31 16 33 6 8 -43 -42 -85 -110 -178 -129
-178 -35 0 -138 94 -175 159 -6 11 -4 13 11 7 10 -4 43 -14 72 -21 93 -25 109
4 37 67 -25 22 -59 60 -76 85 -31 44 -83 163 -75 170 2 3 36 -12 75 -31 39
-20 73 -36 76 -36 17 0 -1 33 -47 86 -29 33 -74 88 -100 122 -27 34 -54 62
-62 62 -8 0 -39 -37 -69 -82 -31 -46 -74 -110 -96 -142 -23 -33 -39 -61 -36
-64 3 -3 24 8 48 24 48 34 97 57 105 49 12 -12 -73 -159 -124 -214 -30 -32
-54 -63 -54 -69 0 -17 38 -24 91 -17 31 4 49 3 49 -3 0 -15 -70 -100 -121
-148 -99 -93 -191 -136 -249 -115 -16 5 -212 148 -437 318 -224 169 -599 451
-833 626 -234 175 -426 321 -428 325 -1 4 58 38 130 76 204 106 1136 609 1198
646 52 31 129 69 140 70 3 0 19 -12 35 -27z m1463 -179 c36 -21 35 -19 57
-134 40 -214 70 -590 47 -590 -9 0 -193 127 -549 377 -35 24 -63 48 -63 53 0
5 44 40 98 79 53 38 151 110 217 159 128 97 123 95 193 56z m-5132 -586 c16
-11 59 -51 97 -87 58 -57 70 -64 85 -54 37 27 180 113 195 119 15 6 16 3 3
-33 -39 -112 -185 -343 -216 -343 -24 0 -141 213 -189 343 -31 85 -27 95 25
55z m5004 -195 c41 -29 107 -74 145 -100 84 -58 85 -61 56 -232 -32 -182 -25
-176 -107 -89 -44 48 -83 103 -108 152 -21 42 -36 79 -34 81 2 2 24 -9 50 -25
59 -37 98 -48 98 -28 0 8 -9 23 -21 34 -37 33 -184 273 -161 262 4 -2 41 -27
82 -55z m-4689 -240 c-36 -70 -97 -113 -162 -113 -33 0 -32 -2 -19 36 12 35
57 67 131 93 73 26 72 26 50 -16z m863 -40 c-3 -16 -23 -64 -44 -108 -42 -89
-101 -155 -137 -155 -22 0 -23 3 -23 69 l0 70 48 41 c52 45 143 109 155 110 4
0 5 -12 1 -27z m3829 -164 c26 -25 114 -69 140 -69 20 0 20 -3 6 -70 -6 -30
-16 -50 -24 -50 -19 0 -90 86 -125 153 -33 61 -32 70 3 36z m67 -359 c14 0 13
-13 -7 -61 l-16 -41 -13 24 c-7 14 -22 48 -33 77 l-21 51 40 -25 c22 -14 44
-25 50 -25z m-4515 -6 c152 -21 291 -56 484 -120 251 -85 458 -183 761 -360
247 -146 538 -318 723 -428 401 -240 648 -376 952 -526 l239 -118 -34 -21
c-19 -12 -45 -24 -56 -27 -28 -7 -195 70 -644 298 -456 232 -801 420 -1063
582 -56 35 -160 99 -232 143 -635 391 -1123 577 -1530 584 -56 1 -64 3 -40 10
42 11 307 1 440 -17z m-175 -233 c434 -76 840 -270 1455 -696 513 -355 755
-504 1207 -746 90 -48 152 -86 145 -90 -6 -4 -55 -16 -108 -28 l-97 -22 -153
77 c-263 131 -578 321 -904 546 -455 314 -730 490 -891 571 -347 174 -738 277
-1009 265 l-96 -4 -36 64 c-19 34 -32 66 -29 70 28 27 347 23 516 -7z m1768
-146 c185 -62 490 -167 677 -233 313 -110 908 -309 1050 -352 276 -84 340
-101 408 -112 42 -7 77 -16 77 -20 0 -15 -166 -148 -185 -148 -51 0 -380 111
-1070 362 -669 243 -802 299 -1012 426 -129 78 -303 192 -303 198 0 3 5 2 10
-1 6 -4 163 -58 348 -120z m967 -101 c50 -8 245 -49 435 -90 720 -156 878
-184 1041 -184 43 0 79 -3 79 -6 0 -9 -37 -54 -88 -108 -46 -48 -46 -48 -97
-42 -135 16 -383 86 -885 251 -173 57 -378 123 -455 145 -186 56 -193 63 -30
34z m-2761 -195 c271 -64 580 -207 891 -412 66 -44 219 -150 340 -237 291
-207 404 -283 620 -412 99 -59 187 -112 195 -118 19 -14 -134 -5 -280 16
l-105 15 -160 106 c-88 58 -268 183 -400 277 -334 237 -470 322 -700 436 -206
102 -341 152 -457 172 l-68 11 -60 83 c-33 45 -60 86 -60 91 0 13 136 -3 244
-28z m2526 -317 c74 -28 225 -85 335 -127 423 -163 534 -204 645 -241 63 -21
117 -39 119 -41 6 -4 -21 -24 -85 -63 l-51 -31 -104 41 c-237 94 -451 187
-569 248 -130 67 -424 244 -436 264 -4 6 -3 9 2 5 5 -3 70 -28 144 -55z"/>
<path d="M1698 5083 c-69 -79 -63 -182 15 -278 l25 -29 -5 71 c-3 39 0 101 7
137 18 98 -1 145 -42 99z"/>
<path d="M1832 4899 c-10 -16 -11 -36 -2 -92 7 -47 7 -83 1 -104 -12 -41 0
-42 33 -3 48 58 51 132 9 197 -19 28 -25 29 -41 2z"/>
<path d="M1531 4799 c-6 -17 -14 -59 -17 -94 -10 -100 13 -160 103 -257 79
-87 108 -134 130 -213 20 -75 27 -218 14 -324 -6 -52 -8 -97 -6 -100 13 -12
27 23 42 100 8 46 17 93 19 104 3 12 24 29 56 45 146 70 217 144 239 248 12
60 6 189 -9 204 -10 10 -54 -42 -95 -112 -14 -25 -37 -85 -51 -134 -28 -102
-45 -128 -102 -162 l-40 -24 -3 53 c-3 75 -26 148 -81 257 -39 77 -51 111 -59
176 -11 89 -36 162 -77 224 -32 48 -48 50 -63 9z"/>
<path d="M1860 4528 c-35 -53 -49 -96 -50 -147 0 -53 17 -131 29 -131 14 1 62
77 72 114 17 62 -3 186 -29 186 -4 0 -14 -10 -22 -22z"/>
<path d="M2163 2903 c-8 -19 39 -159 82 -247 22 -44 35 -61 50 -61 12 0 21 8
23 20 3 24 -103 286 -120 297 -19 12 -28 10 -35 -9z"/>
<path d="M2373 2843 c-7 -2 -13 -12 -13 -20 0 -19 93 -213 127 -264 28 -42 66
-53 78 -21 12 32 -145 315 -173 311 -4 0 -13 -3 -19 -6z"/>
<path d="M2117 2413 c-14 -14 -5 -36 42 -106 65 -96 76 -105 101 -82 11 10 20
24 20 30 0 15 -85 134 -108 153 -17 13 -45 16 -55 5z"/>
<path d="M4184 3726 c-8 -20 17 -63 88 -153 80 -101 183 -208 226 -235 28 -17
36 -18 43 -7 11 18 -3 38 -131 189 -58 69 -123 146 -144 173 -38 47 -72 60
-82 33z"/>
<path d="M4154 2245 c-4 -8 -4 -22 0 -30 10 -27 180 -145 282 -196 112 -56
167 -67 172 -33 2 17 -9 25 -67 48 -84 33 -201 102 -294 174 -73 56 -84 60
-93 37z"/>
</g>
</svg>
